PathFileType	4	(X/Y/Z)	C:/Users/opensim2020/Desktop/walking_exp_matlab/subject02_walking04_straight_04.trc																																																																																																																												
DataRate	CameraRate	NumFrames	NumMarkers	Units	OrigDataRate	OrigDataStartFrame	OrigNumFrames																																																																																																																								
100	100	6	42	mm	100	2924	239																																																																																																																								
Frame#	Time	LFHD			RFHD			LBHD			RBHD			C7			T10			CLAV			STRN			RBAK			LSHO			LUPA			LELB			LFRM			LWRA			LWRB			LFIN			RSHO			RUPA			RELB			RFRM			RWRA			RWRB			RFIN			LASI			RASI			LPSI			RPSI			LTHI			LKNE			LTIB			LANK			LHEE			LTOE			RTHI			RKNE			RTIB			RANK			RHEE			RTOE			*39			*40			*41		
		X1	Y1	Z1	X2	Y2	Z2	X3	Y3	Z3	X4	Y4	Z4	X5	Y5	Z5	X6	Y6	Z6	X7	Y7	Z7	X8	Y8	Z8	X9	Y9	Z9	X10	Y10	Z10	X11	Y11	Z11	X12	Y12	Z12	X13	Y13	Z13	X14	Y14	Z14	X15	Y15	Z15	X16	Y16	Z16	X17	Y17	Z17	X18	Y18	Z18	X19	Y19	Z19	X20	Y20	Z20	X21	Y21	Z21	X22	Y22	Z22	X23	Y23	Z23	X24	Y24	Z24	X25	Y25	Z25	X26	Y26	Z26	X27	Y27	Z27	X28	Y28	Z28	X29	Y29	Z29	X30	Y30	Z30	X31	Y31	Z31	X32	Y32	Z32	X33	Y33	Z33	X34	Y34	Z34	X35	Y35	Z35	X36	Y36	Z36	X37	Y37	Z37	X38	Y38	Z38	X39	Y39	Z39	X40	Y40	Z40	X41	Y41	Z41	X42	Y42	Z42
																																																																																																																															
1	0	-1003.19501	1739.05493	-1410.84436	-1019.69312	1713.13538	-1270.1416	-1132.46301	1665.80127	-1437.19629	-1160.41235	1639.49316	-1299.1875	-1200.68884	1527.33191	-1360.37268	-1261.02502	1252.21387	-1338.54773	-1065.59863	1451.84558	-1383.16882	-1017.73547	1280.26917	-1379.22217	-1257.87085	1355.31677	-1287.25439	-1147.25525	1500.1106	-1544.96436	-1164.37061	1301.41785	-1626.61694	-1158.99536	1158.29871	-1642.7406	-1106.44226	1034.26746	-1654.24316	-1005.14752	941.6358	-1627.78821	-1051.94177	923.92621	-1654.6925	-1009.70526	872.03894	-1657.82202	-1105.72913	1488.8407	-1182.12695	-1146.27783	1305.36731	-1091.88062	-1147.17212	1161.39087	-1067.74976	-1130.73035	1045.21423	-1036.26196	-1093.36914	913.55054	-1038.64404	-1142.76563	917.4248	-1011.20477	-1112.74634	851.64661	-1000.84863	-1059.29419	977.04742	-1495.7771	-1006.11633	981.97522	-1248.02966	-1247.78711	1029.94434	-1377.70691	-1229.03088	1035.89905	-1262.85217	-1138.28711	668.90997	-1549.77795	-1163.71631	485.38586	-1536.95728	-1318.40442	384.96384	-1513.38965	-1459.91382	224.14714	-1464.98901	-1477.34558	229.29161	-1400.2616	-1426.47034	72.13192	-1496.92273	-1029.43872	678.01569	-1178.72034	-1009.91479	471.67514	-1233.40222	-1039.75964	284.30295	-1229.06604	-1062.16077	94.52185	-1273.08911	-1104.625	42.17938	-1325.24426	-909.36456	42.84422	-1283.29248	-1113.67944	1800.63464	-1328.39392	-2845.78906	1033.92944	3357.53491	NaN	NaN	NaN
2	0.01	-994.66327	1740.51477	-1410.71912	-1011.09644	1714.6687	-1270.15417	-1123.92651	1667.22791	-1437.15527	-1151.7428	1640.80029	-1299.17078	-1191.90247	1528.77698	-1360.12512	-1252.33862	1253.73193	-1337.88086	-1057.00427	1453.29065	-1383.49243	-1009.17755	1281.36719	-1379.3385	-1248.53528	1356.97339	-1286.07178	-1139.17847	1501.40759	-1544.78601	-1157.50293	1302.46106	-1625.79089	-1152.72388	1159.28699	-1641.21899	-1101.13733	1034.65039	-1652.08496	-1000.74323	940.83234	-1624.36487	-1047.46521	923.66919	-1652.01135	-1005.74854	870.93695	-1653.71838	-1095.94836	1490.17871	-1182.12012	-1135.17004	1306.72302	-1091.23047	-1135.3988	1162.67822	-1066.44373	-1117.177	1046.47925	-1035.57117	-1078.22412	915.4162	-1039.05066	-1127.45605	918.57495	-1010.98352	-1096.06519	853.19989	-1000.67474	-1051.63245	978.87659	-1496.74219	-997.63318	982.70612	-1247.78967	-1239.52124	1031.16516	-1376.19067	-1220.28821	1037.32397	-1261.7522	-1122.97791	670.96765	-1551.09753	-1144.25024	487.43286	-1538.49146	-1298.53113	388.3718	-1511.89197	-1439.26245	226.16557	-1463.5979	-1458.33142	229.0934	-1399.24866	-1400.03137	76.39631	-1499.99414	-1023.58386	678.10217	-1178.74573	-1007.44843	471.37756	-1233.38672	-1039.02747	284.14581	-1229.38037	-1062.01794	94.33662	-1273.26001	-1104.50854	42.17078	-1325.70642	-909.27008	42.77757	-1283.1532	-1105.23022	1802.10596	-1328.48914	-2845.06055	1033.88318	3360.18042	NaN	NaN	NaN
3	0.02	-986.26874	1742.10132	-1411.10547	-1002.46899	1716.23853	-1270.50488	-1115.4325	1668.59167	-1437.20068	-1143.22449	1642.21436	-1299.23291	-1183.14661	1530.16504	-1359.86157	-1243.74792	1255.24866	-1337.09485	-1048.32117	1454.62109	-1383.75037	-1000.78674	1282.63098	-1379.79565	-1239.75928	1358.70764	-1285.26758	-1131.26904	1502.6593	-1544.80078	-1150.7179	1303.34851	-1624.9165	-1146.44055	1160.10474	-1639.67981	-1095.99646	1034.96277	-1650.11816	-996.91321	939.96265	-1620.90161	-1043.17969	923.46381	-1649.70154	-1002.17029	869.86511	-1649.91248	-1086.34631	1491.61377	-1182.23914	-1124.03918	1308.01868	-1090.69629	-1123.39087	1163.96301	-1065.24731	-1103.19141	1047.98083	-1035.03882	-1062.80469	917.50366	-1039.63757	-1111.59729	919.70422	-1010.51306	-1078.96155	855.04266	-1000.93097	-1044.03113	980.83527	-1497.82971	-989.25031	983.30646	-1247.35144	-1231.37317	1032.43665	-1374.81543	-1211.73193	1038.68091	-1260.77527	-1107.7373	673.23047	-1552.30786	-1125.16431	489.74139	-1539.95996	-1278.31042	391.16931	-1510.20532	-1418.35376	227.81569	-1462.13428	-1438.25513	228.13797	-1398.71082	-1372.81665	79.65436	-1502.87512	-1017.87396	677.9873	-1178.69385	-1005.30646	470.98593	-1233.32678	-1038.5177	284.30969	-1229.12964	-1061.92383	94.42336	-1273.50732	-1104.5387	42.56728	-1325.60596	-909.16711	42.69083	-1283.02783	-1096.61707	1803.32715	-1328.22241	-2845.74292	1033.82581	3357.479	NaN	NaN	NaN
4	0.03	-977.91913	1743.50293	-1411.39868	-993.92261	1717.55835	-1270.7832	-1107.02307	1669.90979	-1437.34656	-1134.58337	1643.51782	-1299.3053	-1174.4845	1531.50891	-1359.6825	-1235.224	1256.7522	-1336.34399	-1039.78076	1455.83826	-1383.94409	-992.31097	1283.6781	-1379.83655	-1230.62085	1360.16309	-1284.29077	-1123.46216	1503.85828	-1544.98462	-1143.98865	1304.10364	-1624.0741	-1140.34668	1160.80615	-1638.22839	-1091.02832	1035.24182	-1648.32605	-993.01129	939.06647	-1617.82971	-1039.20667	923.36023	-1647.68591	-998.89056	868.70093	-1646.36511	-1076.93066	1492.99744	-1182.40369	-1113.7356	1309.45264	-1090.08142	-1111.28662	1165.32837	-1064.18591	-1089.38281	1049.28918	-1034.97644	-1047.25415	919.77875	-1040.39685	-1095.40942	921.02808	-1010.64471	-1061.58801	856.99713	-1001.57202	-1036.28894	982.70099	-1498.47583	-981.10529	984.17798	-1247.1062	-1223.27161	1033.76282	-1373.64697	-1203.37207	1039.93774	-1259.97009	-1092.73523	675.71851	-1553.46716	-1106.30359	492.17279	-1541.25281	-1257.71619	393.07419	-1508.83752	-1396.15613	227.16336	-1462.05237	-1416.38794	226.23488	-1398.47632	-1345.84045	82.2824	-1506.03613	-1012.6319	677.95789	-1179.03516	-1003.15875	470.79266	-1233.19836	-1038.40149	284.40363	-1229.08032	-1061.83655	94.49363	-1273.78369	-1104.53845	42.7204	-1325.78906	-909.09094	42.65891	-1282.94897	-1088.14746	1804.71033	-1328.51306	-2845.0603	1033.88672	3360.18018	NaN	NaN	NaN
5	0.04	-969.34076	1744.63171	-1411.55237	-985.30133	1718.8335	-1271.10107	-1098.6145	1671.16589	-1437.52466	-1126.0509	1644.77258	-1299.45972	-1165.89771	1532.77576	-1359.53711	-1226.72498	1258.18127	-1335.6051	-1031.28625	1456.98364	-1384.16772	-983.97974	1284.95972	-1380.23035	-1222.42859	1361.94666	-1284.021	-1115.48633	1504.724	-1544.81482	-1137.5105	1304.94153	-1623.58899	-1134.43188	1161.45874	-1636.95117	-1086.29846	1035.49512	-1646.72412	-989.45551	937.95929	-1615.00488	-1035.47021	922.93402	-1645.63831	-995.89142	867.58289	-1643.23877	-1067.73694	1494.46545	-1182.60229	-1102.8009	1311.00342	-1089.32275	-1099.08704	1166.7832	-1062.89917	-1075.45752	1050.85693	-1034.34509	-1031.55359	921.91583	-1041.3291	-1079.2428	922.4303	-1010.33142	-1043.79541	859.28583	-1001.896	-1028.33618	984.55322	-1498.53821	-973.21094	985.01093	-1246.58191	-1215.19629	1035.07251	-1372.82336	-1195.16785	1041.07129	-1259.43896	-1078.10767	678.27155	-1554.5907	-1087.57104	494.52927	-1542.34106	-1236.94434	394.00232	-1508.07141	-1373.25098	225.04897	-1462.28296	-1393.52832	223.12723	-1398.22559	-1319.24365	83.3596	-1508.7981	-1008.03168	677.901	-1179.11548	-1001.25354	470.63351	-1233.00696	-1038.11865	284.54337	-1228.9751	-1061.80627	94.74818	-1273.94788	-1104.53638	42.78137	-1325.93127	-909.02155	42.5479	-1282.83484	-1079.69495	1806.05566	-1328.87476	-2845.08447	1033.79565	3360.19946	NaN	NaN	NaN
6	0.05	-961.04431	1745.9104	-1412.26257	-976.62415	1719.95178	-1271.40808	-1090.2915	1672.36108	-1437.80103	-1117.5	1646.05859	-1299.72571	-1157.36523	1533.98572	-1359.46765	-1218.32446	1259.58411	-1334.82861	-1022.80896	1458.1012	-1384.45911	-975.96161	1285.72742	-1379.92126	-1214.04578	1363.50366	-1283.65039	-1107.67139	1505.6488	-1545.08105	-1130.85034	1305.49988	-1622.90027	-1128.74805	1162.04871	-1635.77478	-1082.05591	1035.80322	-1645.58606	-986.31885	937.18158	-1612.84473	-1031.98096	922.5528	-1643.9729	-993.28693	866.45898	-1640.51794	-1058.76416	1495.9917	-1182.88477	-1091.9375	1312.63416	-1088.80212	-1086.81213	1168.21472	-1061.88916	-1060.99109	1052.55981	-1034.24866	-1015.6452	924.57471	-1042.29651	-1062.69897	924.05127	-1010.39795	-1026.03638	861.79523	-1002.83008	-1019.67828	986.88666	-1499.07202	-965.36871	985.81519	-1245.9375	-1207.03674	1036.35999	-1372.39392	-1187.11804	1042.01746	-1259.15601	-1063.89453	681.03772	-1555.91785	-1069.37598	497.17151	-1543.7085	-1216.28003	394.06168	-1508.20508	-1349.95825	222.50352	-1462.58252	-1369.93945	218.96744	-1398.24878	-1292.19629	83.36481	-1510.99341	-1004.16675	677.93372	-1179.25842	-999.13904	470.55569	-1232.95007	-1037.38464	284.66852	-1228.89807	-1061.70947	94.85191	-1274.04639	-1104.57251	42.89033	-1326.05786	-909.05414	42.52393	-1282.71631	-1071.09058	1807.27698	-1329.05444	-2845.13232	1033.90662	3360.2312	NaN	NaN	NaN
